<svg xmlns:rdf="http://www.w3.org/1999/02/22-rdf-syntax-ns#" xmlns="http://www.w3.org/2000/svg" height="1250px" width="1250px" version="1.1" xmlns:cc="http://creativecommons.org/ns#" xmlns:dc="http://purl.org/dc/elements/1.1/" viewBox="0 0 1250 1250">
<path d="m501.44 50.26c30.12-7.75 60.97-12.48 91.99-14.47 16.1-1.09 32.28-0.71 48.4-0.61 91.29 2.71 181.66 31.37 257.99 81.53 75.38 49.18 137.14 119.01 176.61 199.9 38.17 77.49 55.42 165.05 50.1 251.23-4.55 75.75-26.49 150.45-64 216.47-57.97 102.9-153.3 184.17-264.31 224.62-80.18 29.56-167.99 37.91-252.36 24.46-94.52-14.69-184.32-57.62-255.48-121.47-66.44-59.15-116.71-136.25-143.88-220.98-17.6-55.14-25.74-113.33-23.71-171.19 2.11-59.65 14.85-118.96 37.64-174.17 27.77-67.12 70.3-128.12 123.73-177.35 61.11-56.58 136.48-97.73 217.28-117.97zm-106.02 20.34c71.59-29.94 149.15-44.92 226.68-45.6h5.73c37.75 0.43 75.47 4.03 112.55 11.18 89.57 17.34 174.96 55.74 247.54 111.03 63.89 48.54 117.92 109.98 157.85 179.58 39.56 68.92 65.31 145.8 74.72 224.74 8.5 68.55 4.9 138.5-10.08 205.9-11.03 48.44-27.87 95.59-50.55 139.81-39.1 76.96-95.21 145.15-162.92 198.67-72.98 57.87-159.66 98.28-250.92 116.95-66 13.3-134.19 15.82-200.94 6.83-75.8-9.86-149.56-34.84-216.03-72.56-72.07-40.9-135.49-96.89-185.06-163.3-59.2-79.03-98.44-172.97-112.57-270.71-10.48-70.9-8.05-143.61 6.69-213.74 19.17-90.1 59.61-175.57 117.07-247.59 63.05-79.38 146.47-142.54 240.24-181.19z" fill-rule="evenodd" fill="#00a5bf"/>
<path d="m554.61 1023.58c0.65-17.34 6.93-34.61 18.93-47.34 13.02-14.2 32.1-22.7 51.43-22.5 21.59-0.23 42.91 10.42 55.84 27.7 9.28 12 14.06 27.05 14.55 42.16-21.24 3.67-42.86 5.04-64.42 5.04-25.52 0.26-51.16-0.61-76.33-5.06z" fill="#00a5bf"/>
<path d="m967.12 777.81c8.99-12.87 20.61-24.56 35.39-30.49 13.48-5.66 28.84-6.24 42.79-1.96 7.44 2 14.49 5.17 21.38 8.56-20 40.71-45.74 78.57-76.06 112.29-9.01 9.4-17.48 19.35-27.33 27.91-71.25 67.91-163.45 113.59-260.76 128.68 0.12-11.65-3.61-22.74-7.65-33.5 70.39-29.89 134.96-72.76 191.68-123.94 29.29-26.79 56.74-55.74 80.56-87.55z" fill="#00a5bf"/>
<path d="m183.28 753.91c15.74-7.94 33.73-13.97 51.49-10.28 17.86 2.99 33.14 14.49 43.97 28.63 27.5 37.56 59.83 71.41 94.79 102.06 54.21 47.21 115.33 86.86 181.57 114.98-3.96 10.77-7.93 21.83-7.62 33.51-89.49-13.89-174.67-53.64-243.21-112.76-50.31-43.17-91.78-96.63-120.99-156.14z" fill="#00a5bf"/>
<path d="m862.31 704.6c2.15-8.9 4.8-17.81 4.73-27.07 16.93-9.08 36.87-13.36 55.9-9.61 19.84 3.81 38.47 16.2 47.56 34.54 7.77 14.71 8.52 32.6 3.07 48.21-4.39 13.48-13.61 24.51-22 35.68-45.64 58.04-102.58 106.66-164.77 146.22-30.53 19.32-62.62 36.15-95.81 50.46-4.01-6.19-8.69-11.96-14.23-16.85 10.12-9.34 21.08-17.76 31.12-27.2 35.04-31.48 67.7-65.96 94.61-104.71 27.55-39.14 47.99-83.28 59.82-129.67z" fill="#00a5bf"/>
<path d="m300.2 679.03c11.81-7.91 25.95-12.46 40.2-12.41 14.86-0.35 29.48 4.05 42.54 10.9-0.15 9.28 2.6 18.23 4.78 27.16 11.72 46.06 31.96 89.86 59.2 128.78 26.56 38.37 58.74 72.57 93.29 103.82 10.64 10.02 22.22 19.03 33.01 28.88-5.53 4.91-10.19 10.68-14.22 16.87-46.7-20.08-91.15-45.35-132.32-75.15-52.78-38.4-101.32-83.5-139.49-136.67-10.53-14.42-16.6-32.87-13.57-50.74 2.44-16.77 12.63-31.98 26.58-41.44z" fill="#00a5bf"/>
<path d="m725.08 686.62c-0.9-18.3-2.37-36.84-8.35-54.3 11.27-15.78 29.8-25.41 48.84-27.85 14.11-1.15 28.62-0.66 42.03 4.28 19.46 6.64 37.14 20.21 46.13 38.99 7.09 14.7 7.68 31.96 3.18 47.52-10.93 45.74-29.92 89.52-56.32 128.48-35.34 52.61-81.22 97.22-129.94 137.39-6.52-4.81-13.86-8.35-21.41-11.24 21.5-45.66 40.75-92.52 55.15-140.94 11.92-39.69 20.06-80.8 20.69-122.33z" fill="#00a5bf"/>
<path d="m390.23 677.03c-0.62-15.87 5.04-31.83 15.46-43.82 13.42-15.92 33.3-25.52 53.69-28.6 14.91-1.35 30.45-1.11 44.4 4.98 11.65 4.69 22.16 12.5 29.46 22.75-5.96 17.48-7.53 36.03-8.35 54.34 0.66 47.31 11.28 93.9 25.82 138.74 13.71 42.61 30.99 84.01 50.04 124.49-7.57 2.85-14.89 6.41-21.42 11.22-36.16-29.86-70.7-61.98-100.6-98.2-28.18-33.95-52.15-71.73-68.38-112.86-6.38-16.18-11.67-32.8-16.03-49.65-1.92-7.67-4.09-15.4-4.09-23.39z" fill="#00a5bf"/>
<path d="m549.72 613.64c9.64-16.72 25.83-29.43 44.39-34.8 20.03-5.67 41.66-5.68 61.7-0.01 18.55 5.37 34.77 18.03 44.42 34.76 11.77 19.84 15.79 43.17 16.68 65.92 1.19 42.94-7.93 85.39-19.67 126.46-14.38 48.8-33.69 95.99-55.33 141.98-11.09-2.26-22.75-2.28-33.84 0.01-21.14-45.01-40.11-91.14-54.39-138.81-12.34-42.47-22.03-86.41-20.59-130.89 1.01-22.32 5.09-45.17 16.63-64.62z" fill="#00a5bf"/>
</svg>
