<svg xmlns="http://www.w3.org/2000/svg" width="100%" height="100%"><path d="M15,-247L402,-251L622,-256Z" fill="#d4563a" stroke="#d4563a" stroke-width="1.51"/><path d="M930,1327L283,1341L1224,1330Z" fill="#a692a2" stroke="#a692a2" stroke-width="1.51"/><path d="M622,-256L930,-206L1233,-236Z" fill="#e2936b" stroke="#e2936b" stroke-width="1.51"/><path d="M622,-256L1233,-236L1385,-257Z" fill="#dc907b" stroke="#dc907b" stroke-width="1.51"/><path d="M1224,1330L283,1341L1443,1335Z" fill="#a29ab3" stroke="#a29ab3" stroke-width="1.51"/><path d="M1672,1247L1443,1335L1752,1244Z" fill="#6286bf" stroke="#6286bf" stroke-width="1.51"/><path d="M1385,-257L1810,-222L2053,-236Z" fill="#a56674" stroke="#a56674" stroke-width="1.51"/><path d="M1907,833L1887,1016L2088,829Z" fill="#769dcb" stroke="#769dcb" stroke-width="1.51"/><path d="M1883,719L2088,829L2119,634Z" fill="#8fa0ce" stroke="#8fa0ce" stroke-width="1.51"/><path d="M1952,1247L1752,1244L2126,1306Z" fill="#4265ad" stroke="#4265ad" stroke-width="1.51"/><path d="M1752,1244L1443,1335L2126,1306Z" fill="#5173b4" stroke="#5173b4" stroke-width="1.51"/><path d="M2102,1086L1952,1247L2126,1306Z" fill="#4060aa" stroke="#4060aa" stroke-width="1.51"/><path d="M2088,829L1887,1016L2128,1025Z" fill="#698bc1" stroke="#698bc1" stroke-width="1.51"/><path d="M2119,634L2088,829L2128,1025Z" fill="#7c8dc4" stroke="#7c8dc4" stroke-width="1.51"/><path d="M2102,1086L2126,1306L2128,1025Z" fill="#4965ad" stroke="#4965ad" stroke-width="1.51"/><path d="M1914,412L2074,524L2132,349Z" fill="#a99ba5" stroke="#a99ba5" stroke-width="1.51"/><path d="M2074,524L2119,634L2132,349Z" fill="#a599ab" stroke="#a599ab" stroke-width="1.51"/><path d="M2119,634L2128,1025L2132,349Z" fill="#9495c3" stroke="#9495c3" stroke-width="1.51"/><path d="M2082,-82L1922,104L2138,77Z" fill="#ab5e75" stroke="#ab5e75" stroke-width="1.51"/><path d="M1922,104L2082,234L2138,77Z" fill="#ac7180" stroke="#ac7180" stroke-width="1.51"/><path d="M2053,-236L2082,-82L2138,77Z" fill="#a04668" stroke="#a04668" stroke-width="1.51"/><path d="M2082,234L2132,349L2138,77Z" fill="#a97585" stroke="#a97585" stroke-width="1.51"/><path d="M1921,-63L1922,104L2082,-82Z" fill="#ac6275" stroke="#ac6275" stroke-width="1.51"/><path d="M2082,234L1929,250L2132,349Z" fill="#ab8890" stroke="#ab8890" stroke-width="1.51"/><path d="M1929,250L1914,412L2132,349Z" fill="#ac989c" stroke="#ac989c" stroke-width="1.51"/><path d="M1909,1166L1952,1247L2102,1086Z" fill="#4871b3" stroke="#4871b3" stroke-width="1.51"/><path d="M1887,1016L2102,1086L2128,1025Z" fill="#5a7fbb" stroke="#5a7fbb" stroke-width="1.51"/><path d="M2074,524L1901,549L2119,634Z" fill="#a4a6ba" stroke="#a4a6ba" stroke-width="1.51"/><path d="M1901,549L1883,719L2119,634Z" fill="#9fadc8" stroke="#9fadc8" stroke-width="1.51"/><path d="M1385,-257L1584,-190L1810,-222Z" fill="#b6777c" stroke="#b6777c" stroke-width="1.51"/><path d="M2053,-236L1901,-174L2082,-82Z" fill="#9b4967" stroke="#9b4967" stroke-width="1.51"/><path d="M1883,719L1907,833L2088,829Z" fill="#87a6d0" stroke="#87a6d0" stroke-width="1.51"/><path d="M1887,1016L1909,1166L2102,1086Z" fill="#5481bb" stroke="#5481bb" stroke-width="1.51"/><path d="M1922,104L1929,250L2082,234Z" fill="#b08689" stroke="#b08689" stroke-width="1.51"/><path d="M1901,-174L1921,-63L2082,-82Z" fill="#a6566c" stroke="#a6566c" stroke-width="1.51"/><path d="M1810,-222L1901,-174L2053,-236Z" fill="#9a536c" stroke="#9a536c" stroke-width="1.51"/><path d="M1914,412L1901,549L2074,524Z" fill="#abadb3" stroke="#abadb3" stroke-width="1.51"/><path d="M1772,978L1887,1016L1907,833Z" fill="#74a4cd" stroke="#74a4cd" stroke-width="1.51"/><path d="M1774,284L1775,376L1914,412Z" fill="#b7b2a8" stroke="#b7b2a8" stroke-width="1.51"/><path d="M1921,-63L1808,-9L1922,104Z" fill="#b4737c" stroke="#b4737c" stroke-width="1.51"/><path d="M1774,284L1914,412L1929,250Z" fill="#b5a59f" stroke="#b5a59f" stroke-width="1.51"/><path d="M1922,104L1754,105L1929,250Z" fill="#b88d8b" stroke="#b88d8b" stroke-width="1.51"/><path d="M1909,1166L1752,1244L1952,1247Z" fill="#4a77b5" stroke="#4a77b5" stroke-width="1.51"/><path d="M575,1294L283,1341L930,1327Z" fill="#a8828f" stroke="#a8828f" stroke-width="1.51"/><path d="M1769,685L1883,719L1901,549Z" fill="#a4bcd2" stroke="#a4bcd2" stroke-width="1.51"/><path d="M1887,1016L1795,1154L1909,1166Z" fill="#588abf" stroke="#588abf" stroke-width="1.51"/><path d="M1795,1154L1752,1244L1909,1166Z" fill="#5282bb" stroke="#5282bb" stroke-width="1.51"/><path d="M1735,493L1901,549L1914,412Z" fill="#b2bbb8" stroke="#b2bbb8" stroke-width="1.51"/><path d="M1901,-174L1808,-9L1921,-63Z" fill="#ae6673" stroke="#ae6673" stroke-width="1.51"/><path d="M1754,105L1774,284L1929,250Z" fill="#bb9d94" stroke="#bb9d94" stroke-width="1.51"/><path d="M1883,719L1783,803L1907,833Z" fill="#8fb3d7" stroke="#8fb3d7" stroke-width="1.51"/><path d="M1783,803L1772,978L1907,833Z" fill="#84b2d5" stroke="#84b2d5" stroke-width="1.51"/><path d="M1775,376L1735,493L1914,412Z" fill="#b7bbb3" stroke="#b7bbb3" stroke-width="1.51"/><path d="M1808,-9L1754,105L1922,104Z" fill="#bb8284" stroke="#bb8284" stroke-width="1.51"/><path d="M1810,-222L1808,-9L1901,-174Z" fill="#ad6471" stroke="#ad6471" stroke-width="1.51"/><path d="M1735,493L1769,685L1901,549Z" fill="#b1c4c8" stroke="#b1c4c8" stroke-width="1.51"/><path d="M1772,978L1795,1154L1887,1016Z" fill="#659ac7" stroke="#659ac7" stroke-width="1.51"/><path d="M1769,685L1783,803L1883,719Z" fill="#9bbddb" stroke="#9bbddb" stroke-width="1.51"/><path d="M1735,493L1664,512L1769,685Z" fill="#b9cfcb" stroke="#b9cfcb" stroke-width="1.51"/><path d="M1664,512L1645,666L1769,685Z" fill="#b5d1d6" stroke="#b5d1d6" stroke-width="1.51"/><path d="M1754,105L1634,211L1774,284Z" fill="#c4a797" stroke="#c4a797" stroke-width="1.51"/><path d="M1609,808L1772,978L1783,803Z" fill="#8dbedb" stroke="#8dbedb" stroke-width="1.51"/><path d="M1772,978L1615,1025L1795,1154Z" fill="#6da4cc" stroke="#6da4cc" stroke-width="1.51"/><path d="M1615,1025L1588,1101L1795,1154Z" fill="#6ea4cd" stroke="#6ea4cd" stroke-width="1.51"/><path d="M1683,-40L1754,105L1808,-9Z" fill="#c18484" stroke="#c18484" stroke-width="1.51"/><path d="M1683,-40L1808,-9L1810,-222Z" fill="#b87278" stroke="#b87278" stroke-width="1.51"/><path d="M1584,-190L1683,-40L1810,-222Z" fill="#b87579" stroke="#b87579" stroke-width="1.51"/><path d="M1683,-40L1646,72L1754,105Z" fill="#c78f89" stroke="#c78f89" stroke-width="1.51"/><path d="M1769,685L1645,666L1783,803Z" fill="#a5c8e1" stroke="#a5c8e1" stroke-width="1.51"/><path d="M1645,666L1609,808L1783,803Z" fill="#a3cbe2" stroke="#a3cbe2" stroke-width="1.51"/><path d="M1672,1247L1752,1244L1795,1154Z" fill="#5787be" stroke="#5787be" stroke-width="1.51"/><path d="M1588,1101L1672,1247L1795,1154Z" fill="#6296c5" stroke="#6296c5" stroke-width="1.51"/><path d="M1609,808L1615,1025L1772,978Z" fill="#87bbd8" stroke="#87bbd8" stroke-width="1.51"/><path d="M1774,284L1586,400L1775,376Z" fill="#c0bead" stroke="#c0bead" stroke-width="1.51"/><path d="M1634,211L1586,400L1774,284Z" fill="#c7bca8" stroke="#c7bca8" stroke-width="1.51"/><path d="M1586,400L1735,493L1775,376Z" fill="#c1c8b8" stroke="#c1c8b8" stroke-width="1.51"/><path d="M1586,400L1664,512L1735,493Z" fill="#c3d0c0" stroke="#c3d0c0" stroke-width="1.51"/><path d="M1646,72L1634,211L1754,105Z" fill="#c89f92" stroke="#c89f92" stroke-width="1.51"/><path d="M1385,-257L1483,-193L1584,-190Z" fill="#c28281" stroke="#c28281" stroke-width="1.51"/><path d="M1609,808L1505,981L1615,1025Z" fill="#91c3dd" stroke="#91c3dd" stroke-width="1.51"/><path d="M1519,-104L1529,88L1646,72Z" fill="#d2978c" stroke="#d2978c" stroke-width="1.51"/><path d="M1541,535L1645,666L1664,512Z" fill="#c3dad1" stroke="#c3dad1" stroke-width="1.51"/><path d="M1519,-104L1646,72L1683,-40Z" fill="#ca8d86" stroke="#ca8d86" stroke-width="1.51"/><path d="M1584,-190L1519,-104L1683,-40Z" fill="#c7827e" stroke="#c7827e" stroke-width="1.51"/><path d="M1529,88L1634,211L1646,72Z" fill="#d0a695" stroke="#d0a695" stroke-width="1.51"/><path d="M1588,1101L1478,1107L1672,1247Z" fill="#71a1cc" stroke="#71a1cc" stroke-width="1.51"/><path d="M1478,1107L1443,1335L1672,1247Z" fill="#6f98c7" stroke="#6f98c7" stroke-width="1.51"/><path d="M1491,379L1586,400L1634,211Z" fill="#d0c9b1" stroke="#d0c9b1" stroke-width="1.51"/><path d="M1586,400L1541,535L1664,512Z" fill="#c9d7c5" stroke="#c9d7c5" stroke-width="1.51"/><path d="M1453,193L1491,379L1634,211Z" fill="#d6c4a9" stroke="#d6c4a9" stroke-width="1.51"/><path d="M1474,720L1609,808L1645,666Z" fill="#b3d7e8" stroke="#b3d7e8" stroke-width="1.51"/><path d="M1541,535L1474,720L1645,666Z" fill="#c2dee0" stroke="#c2dee0" stroke-width="1.51"/><path d="M1529,88L1453,193L1634,211Z" fill="#d6b39c" stroke="#d6b39c" stroke-width="1.51"/><path d="M1389,1278L1443,1335L1478,1107Z" fill="#7a9dcb" stroke="#7a9dcb" stroke-width="1.51"/><path d="M1430,786L1505,981L1609,808Z" fill="#a5d3e6" stroke="#a5d3e6" stroke-width="1.51"/><path d="M1505,981L1588,1101L1615,1025Z" fill="#81b7d6" stroke="#81b7d6" stroke-width="1.51"/><path d="M1474,720L1430,786L1609,808Z" fill="#b4dbeb" stroke="#b4dbeb" stroke-width="1.51"/><path d="M1483,-193L1519,-104L1584,-190Z" fill="#c6837f" stroke="#c6837f" stroke-width="1.51"/><path d="M1491,379L1541,535L1586,400Z" fill="#d0d9c2" stroke="#d0d9c2" stroke-width="1.51"/><path d="M1505,981L1478,1107L1588,1101Z" fill="#83b6d6" stroke="#83b6d6" stroke-width="1.51"/><path d="M1519,-104L1386,-44L1529,88Z" fill="#d8998c" stroke="#d8998c" stroke-width="1.51"/><path d="M-57,1290L-127,1288L283,1341Z" fill="#a04667" stroke="#a04667" stroke-width="1.51"/><path d="M1387,381L1347,542L1491,379Z" fill="#dde3c7" stroke="#dde3c7" stroke-width="1.51"/><path d="M1430,786L1379,830L1505,981Z" fill="#acd9e9" stroke="#acd9e9" stroke-width="1.51"/><path d="M1386,-44L1388,92L1529,88Z" fill="#e1a794" stroke="#e1a794" stroke-width="1.51"/><path d="M1491,379L1347,542L1541,535Z" fill="#d7e5cc" stroke="#d7e5cc" stroke-width="1.51"/><path d="M1347,542L1474,720L1541,535Z" fill="#d1e8de" stroke="#d1e8de" stroke-width="1.51"/><path d="M1453,193L1387,381L1491,379Z" fill="#ddd3b5" stroke="#ddd3b5" stroke-width="1.51"/><path d="M1388,92L1453,193L1529,88Z" fill="#deb39b" stroke="#deb39b" stroke-width="1.51"/><path d="M1364,206L1387,381L1453,193Z" fill="#e2cdad" stroke="#e2cdad" stroke-width="1.51"/><path d="M1483,-193L1386,-44L1519,-104Z" fill="#d48d84" stroke="#d48d84" stroke-width="1.51"/><path d="M1328,1040L1478,1107L1505,981Z" fill="#90c1dd" stroke="#90c1dd" stroke-width="1.51"/><path d="M1379,830L1328,1040L1505,981Z" fill="#a2d0e4" stroke="#a2d0e4" stroke-width="1.51"/><path d="M1347,542L1294,704L1474,720Z" fill="#d3ebea" stroke="#d3ebea" stroke-width="1.51"/><path d="M1280,1172L1389,1278L1478,1107Z" fill="#84abd2" stroke="#84abd2" stroke-width="1.51"/><path d="M1385,-257L1386,-44L1483,-193Z" fill="#d08b83" stroke="#d08b83" stroke-width="1.51"/><path d="M1328,1040L1280,1172L1478,1107Z" fill="#90bad9" stroke="#90bad9" stroke-width="1.51"/><path d="M1294,704L1430,786L1474,720Z" fill="#c5e5f1" stroke="#c5e5f1" stroke-width="1.51"/><path d="M930,-206L1068,-192L1233,-236Z" fill="#e1947b" stroke="#e1947b" stroke-width="1.51"/><path d="M1389,1278L1224,1330L1443,1335Z" fill="#8092c7" stroke="#8092c7" stroke-width="1.51"/><path d="M1388,92L1364,206L1453,193Z" fill="#e3bea1" stroke="#e3bea1" stroke-width="1.51"/><path d="M1385,-257L1233,-236L1386,-44Z" fill="#d68d86" stroke="#d68d86" stroke-width="1.51"/><path d="M1294,704L1379,830L1430,786Z" fill="#c3e4f0" stroke="#c3e4f0" stroke-width="1.51"/><path d="M1232,1009L1328,1040L1379,830Z" fill="#abd4e6" stroke="#abd4e6" stroke-width="1.51"/><path d="M1165,846L1232,1009L1379,830Z" fill="#bbdfec" stroke="#bbdfec" stroke-width="1.51"/><path d="M1233,-236L1215,-8L1386,-44Z" fill="#e69a8b" stroke="#e69a8b" stroke-width="1.51"/><path d="M1227,555L1347,542L1387,381Z" fill="#e5eed1" stroke="#e5eed1" stroke-width="1.51"/><path d="M1135,440L1227,555L1387,381Z" fill="#edefcf" stroke="#edefcf" stroke-width="1.51"/><path d="M1364,206L1235,255L1387,381Z" fill="#e8d4b3" stroke="#e8d4b3" stroke-width="1.51"/><path d="M1214,137L1364,206L1388,92Z" fill="#ebbea2" stroke="#ebbea2" stroke-width="1.51"/><path d="M1386,-44L1215,-8L1388,92Z" fill="#e9a794" stroke="#e9a794" stroke-width="1.51"/><path d="M1215,-8L1214,137L1388,92Z" fill="#f0b49c" stroke="#f0b49c" stroke-width="1.51"/><path d="M1280,1172L1224,1330L1389,1278Z" fill="#89a0ce" stroke="#89a0ce" stroke-width="1.51"/><path d="M1235,255L1135,440L1387,381Z" fill="#eee4c0" stroke="#eee4c0" stroke-width="1.51"/><path d="M1227,555L1294,704L1347,542Z" fill="#e2f2e3" stroke="#e2f2e3" stroke-width="1.51"/><path d="M1294,704L1165,846L1379,830Z" fill="#cae7f1" stroke="#cae7f1" stroke-width="1.51"/><path d="M1214,137L1235,255L1364,206Z" fill="#f0cba9" stroke="#f0cba9" stroke-width="1.51"/><path d="M1213,1126L1280,1172L1328,1040Z" fill="#99bddb" stroke="#99bddb" stroke-width="1.51"/><path d="M1227,555L1197,682L1294,704Z" fill="#e2f3ed" stroke="#e2f3ed" stroke-width="1.51"/><path d="M1232,1009L1213,1126L1328,1040Z" fill="#a3c8e1" stroke="#a3c8e1" stroke-width="1.51"/><path d="M1068,-192L1215,-8L1233,-236Z" fill="#e89886" stroke="#e89886" stroke-width="1.51"/><path d="M1089,365L1135,440L1235,255Z" fill="#f6e7bc" stroke="#f6e7bc" stroke-width="1.51"/><path d="M1213,1126L1224,1330L1280,1172Z" fill="#92aed4" stroke="#92aed4" stroke-width="1.51"/><path d="M1197,682L1165,846L1294,704Z" fill="#d8eff5" stroke="#d8eff5" stroke-width="1.51"/><path d="M1024,96L1214,137L1215,-8Z" fill="#f9b998" stroke="#f9b998" stroke-width="1.51"/><path d="M997,1279L930,1327L1224,1330Z" fill="#9e9dbc" stroke="#9e9dbc" stroke-width="1.51"/><path d="M1213,1126L1018,1169L1224,1330Z" fill="#9ab1d0" stroke="#9ab1d0" stroke-width="1.51"/><path d="M1018,1169L997,1279L1224,1330Z" fill="#9fa8c4" stroke="#9fa8c4" stroke-width="1.51"/><path d="M1035,566L1197,682L1227,555Z" fill="#eef7e1" stroke="#eef7e1" stroke-width="1.51"/><path d="M1035,983L1213,1126L1232,1009Z" fill="#afcfe0" stroke="#afcfe0" stroke-width="1.51"/><path d="M1165,846L1035,983L1232,1009Z" fill="#bedde5" stroke="#bedde5" stroke-width="1.51"/><path d="M1214,137L987,262L1235,255Z" fill="#f9d3a7" stroke="#f9d3a7" stroke-width="1.51"/><path d="M987,262L1089,365L1235,255Z" fill="#f9e0ad" stroke="#f9e0ad" stroke-width="1.51"/><path d="M1068,-192L985,-92L1215,-8Z" fill="#f1a080" stroke="#f1a080" stroke-width="1.51"/><path d="M1024,96L987,262L1214,137Z" fill="#fccb99" stroke="#fccb99" stroke-width="1.51"/><path d="M1135,440L1035,566L1227,555Z" fill="#f5f8d1" stroke="#f5f8d1" stroke-width="1.51"/><path d="M1037,826L1165,846L1197,682Z" fill="#d9eeed" stroke="#d9eeed" stroke-width="1.51"/><path d="M1007,722L1037,826L1197,682Z" fill="#e3f3e9" stroke="#e3f3e9" stroke-width="1.51"/><path d="M1035,983L1018,1169L1213,1126Z" fill="#afc7d3" stroke="#afc7d3" stroke-width="1.51"/><path d="M985,-92L1024,96L1215,-8Z" fill="#f9ae88" stroke="#f9ae88" stroke-width="1.51"/><path d="M1035,566L1007,722L1197,682Z" fill="#eef7e2" stroke="#eef7e2" stroke-width="1.51"/><path d="M1037,826L1035,983L1165,846Z" fill="#cde7e2" stroke="#cde7e2" stroke-width="1.51"/><path d="M1089,365L1035,566L1135,440Z" fill="#f8f4c2" stroke="#f8f4c2" stroke-width="1.51"/><path d="M924,193L987,262L1024,96Z" fill="#ffd18f" stroke="#ffd18f" stroke-width="1.51"/><path d="M878,419L906,531L1035,566Z" fill="#fffab8" stroke="#fffab8" stroke-width="1.51"/><path d="M878,419L1035,566L1089,365Z" fill="#fdf5b7" stroke="#fdf5b7" stroke-width="1.51"/><path d="M987,262L878,419L1089,365Z" fill="#feeba6" stroke="#feeba6" stroke-width="1.51"/><path d="M985,-92L898,-47L1024,96Z" fill="#fcaf7a" stroke="#fcaf7a" stroke-width="1.51"/><path d="M896,1124L1018,1169L1035,983Z" fill="#b7cac7" stroke="#b7cac7" stroke-width="1.51"/><path d="M930,-206L985,-92L1068,-192Z" fill="#ec9b72" stroke="#ec9b72" stroke-width="1.51"/><path d="M433,1296L283,1341L575,1294Z" fill="#ab7382" stroke="#ab7382" stroke-width="1.51"/><path d="M906,531L883,721L1007,722Z" fill="#f5f8d1" stroke="#f5f8d1" stroke-width="1.51"/><path d="M898,-47L865,78L1024,96Z" fill="#ffb67c" stroke="#ffb67c" stroke-width="1.51"/><path d="M906,531L1007,722L1035,566Z" fill="#f9fcce" stroke="#f9fcce" stroke-width="1.51"/><path d="M862,982L896,1124L1035,983Z" fill="#c1d4c7" stroke="#c1d4c7" stroke-width="1.51"/><path d="M1007,722L901,794L1037,826Z" fill="#e4f2db" stroke="#e4f2db" stroke-width="1.51"/><path d="M862,982L1035,983L1037,826Z" fill="#cee3d2" stroke="#cee3d2" stroke-width="1.51"/><path d="M901,794L862,982L1037,826Z" fill="#d9ead2" stroke="#d9ead2" stroke-width="1.51"/><path d="M705,1253L575,1294L930,1327Z" fill="#a9969f" stroke="#a9969f" stroke-width="1.51"/><path d="M896,1124L997,1279L1018,1169Z" fill="#acb8be" stroke="#acb8be" stroke-width="1.51"/><path d="M865,78L924,193L1024,96Z" fill="#ffc585" stroke="#ffc585" stroke-width="1.51"/><path d="M896,1124L930,1327L997,1279Z" fill="#a9adb6" stroke="#a9adb6" stroke-width="1.51"/><path d="M883,721L901,794L1007,722Z" fill="#ebf4d7" stroke="#ebf4d7" stroke-width="1.51"/><path d="M896,1124L787,1184L930,1327Z" fill="#acafb2" stroke="#acafb2" stroke-width="1.51"/><path d="M930,-206L898,-47L985,-92Z" fill="#f59f6e" stroke="#f59f6e" stroke-width="1.51"/><path d="M924,193L878,419L987,262Z" fill="#ffe198" stroke="#ffe198" stroke-width="1.51"/><path d="M726,-157L731,-93L898,-47Z" fill="#f39761" stroke="#f39761" stroke-width="1.51"/><path d="M784,829L862,982L901,794Z" fill="#dae5ca" stroke="#dae5ca" stroke-width="1.51"/><path d="M723,533L883,721L906,531Z" fill="#fbf5bd" stroke="#fbf5bd" stroke-width="1.51"/><path d="M727,195L878,419L924,193Z" fill="#ffd88d" stroke="#ffd88d" stroke-width="1.51"/><path d="M726,-157L898,-47L930,-206Z" fill="#f09765" stroke="#f09765" stroke-width="1.51"/><path d="M622,-256L726,-157L930,-206Z" fill="#e38b5c" stroke="#e38b5c" stroke-width="1.51"/><path d="M787,1184L705,1253L930,1327Z" fill="#aaa2a9" stroke="#aaa2a9" stroke-width="1.51"/><path d="M723,533L693,678L883,721Z" fill="#f8eebe" stroke="#f8eebe" stroke-width="1.51"/><path d="M865,78L727,195L924,193Z" fill="#ffc47e" stroke="#ffc47e" stroke-width="1.51"/><path d="M757,90L727,195L865,78Z" fill="#ffbb75" stroke="#ffbb75" stroke-width="1.51"/><path d="M727,195L719,443L878,419Z" fill="#ffe092" stroke="#ffe092" stroke-width="1.51"/><path d="M862,982L787,1184L896,1124Z" fill="#b9c3b9" stroke="#b9c3b9" stroke-width="1.51"/><path d="M757,90L865,78L898,-47Z" fill="#feaf73" stroke="#feaf73" stroke-width="1.51"/><path d="M878,419L723,533L906,531Z" fill="#fff2ac" stroke="#fff2ac" stroke-width="1.51"/><path d="M719,443L723,533L878,419Z" fill="#ffeca2" stroke="#ffeca2" stroke-width="1.51"/><path d="M731,-93L757,90L898,-47Z" fill="#f9a46a" stroke="#f9a46a" stroke-width="1.51"/><path d="M883,721L784,829L901,794Z" fill="#e7eccf" stroke="#e7eccf" stroke-width="1.51"/><path d="M732,956L787,1184L862,982Z" fill="#c1c9b9" stroke="#c1c9b9" stroke-width="1.51"/><path d="M784,829L732,956L862,982Z" fill="#d3dac1" stroke="#d3dac1" stroke-width="1.51"/><path d="M693,678L784,829L883,721Z" fill="#edebc9" stroke="#edebc9" stroke-width="1.51"/><path d="M580,290L719,443L727,195Z" fill="#ffd282" stroke="#ffd282" stroke-width="1.51"/><path d="M731,-93L572,-38L757,90Z" fill="#f89d60" stroke="#f89d60" stroke-width="1.51"/><path d="M693,678L590,718L784,829Z" fill="#eee3c0" stroke="#eee3c0" stroke-width="1.51"/><path d="M579,890L732,956L784,829Z" fill="#d8d7ba" stroke="#d8d7ba" stroke-width="1.51"/><path d="M567,1170L705,1253L787,1184Z" fill="#afa4a2" stroke="#afa4a2" stroke-width="1.51"/><path d="M572,1043L567,1170L787,1184Z" fill="#b9aca3" stroke="#b9aca3" stroke-width="1.51"/><path d="M732,956L572,1043L787,1184Z" fill="#c0bfae" stroke="#c0bfae" stroke-width="1.51"/><path d="M590,718L579,890L784,829Z" fill="#e5dab9" stroke="#e5dab9" stroke-width="1.51"/><path d="M584,121L727,195L757,90Z" fill="#feb76e" stroke="#feb76e" stroke-width="1.51"/><path d="M572,-38L584,121L757,90Z" fill="#fca262" stroke="#fca262" stroke-width="1.51"/><path d="M580,290L564,441L719,443Z" fill="#ffd788" stroke="#ffd788" stroke-width="1.51"/><path d="M719,443L611,491L723,533Z" fill="#ffe79c" stroke="#ffe79c" stroke-width="1.51"/><path d="M611,491L693,678L723,533Z" fill="#feeaa8" stroke="#feeaa8" stroke-width="1.51"/><path d="M726,-157L572,-38L731,-93Z" fill="#f18f57" stroke="#f18f57" stroke-width="1.51"/><path d="M579,890L572,1043L732,956Z" fill="#d0c6ae" stroke="#d0c6ae" stroke-width="1.51"/><path d="M584,121L580,290L727,195Z" fill="#febc6e" stroke="#febc6e" stroke-width="1.51"/><path d="M622,-256L572,-38L726,-157Z" fill="#eb8451" stroke="#eb8451" stroke-width="1.51"/><path d="M564,441L611,491L719,443Z" fill="#ffdf93" stroke="#ffdf93" stroke-width="1.51"/><path d="M611,491L590,718L693,678Z" fill="#fae3ae" stroke="#fae3ae" stroke-width="1.51"/><path d="M567,1170L575,1294L705,1253Z" fill="#af9598" stroke="#af9598" stroke-width="1.51"/><path d="M15,-247L168,-204L402,-251Z" fill="#d14132" stroke="#d14132" stroke-width="1.51"/><path d="M483,984L572,1043L579,890Z" fill="#cfbda5" stroke="#cfbda5" stroke-width="1.51"/><path d="M490,223L580,290L584,121Z" fill="#feb668" stroke="#feb668" stroke-width="1.51"/><path d="M413,555L459,715L590,718Z" fill="#f9d3a6" stroke="#f9d3a6" stroke-width="1.51"/><path d="M459,715L579,890L590,718Z" fill="#ecd1b0" stroke="#ecd1b0" stroke-width="1.51"/><path d="M413,555L590,718L611,491Z" fill="#feda9e" stroke="#feda9e" stroke-width="1.51"/><path d="M402,-251L572,-38L622,-256Z" fill="#e37647" stroke="#e37647" stroke-width="1.51"/><path d="M402,-251L406,-27L572,-38Z" fill="#ed7542" stroke="#ed7542" stroke-width="1.51"/><path d="M479,1091L567,1170L572,1043Z" fill="#bea89b" stroke="#bea89b" stroke-width="1.51"/><path d="M572,-38L402,55L584,121Z" fill="#fa9356" stroke="#fa9356" stroke-width="1.51"/><path d="M564,441L413,555L611,491Z" fill="#ffd88e" stroke="#ffd88e" stroke-width="1.51"/><path d="M567,1170L433,1296L575,1294Z" fill="#ae8a8e" stroke="#ae8a8e" stroke-width="1.51"/><path d="M459,715L386,887L579,890Z" fill="#e5c6a7" stroke="#e5c6a7" stroke-width="1.51"/><path d="M379,391L564,441L580,290Z" fill="#feca7b" stroke="#feca7b" stroke-width="1.51"/><path d="M406,-27L402,55L572,-38Z" fill="#f5854c" stroke="#f5854c" stroke-width="1.51"/><path d="M490,223L379,391L580,290Z" fill="#febd6e" stroke="#febd6e" stroke-width="1.51"/><path d="M402,55L490,223L584,121Z" fill="#fca15b" stroke="#fca15b" stroke-width="1.51"/><path d="M386,887L483,984L579,890Z" fill="#d8bda3" stroke="#d8bda3" stroke-width="1.51"/><path d="M483,984L479,1091L572,1043Z" fill="#c7b09d" stroke="#c7b09d" stroke-width="1.51"/><path d="M479,1091L433,1296L567,1170Z" fill="#b49491" stroke="#b49491" stroke-width="1.51"/><path d="M379,391L413,555L564,441Z" fill="#ffcc83" stroke="#ffcc83" stroke-width="1.51"/><path d="M402,-251L288,-80L406,-27Z" fill="#e9653c" stroke="#e9653c" stroke-width="1.51"/><path d="M298,799L386,887L459,715Z" fill="#e9bda1" stroke="#e9bda1" stroke-width="1.51"/><path d="M257,1186L433,1296L479,1091Z" fill="#b48788" stroke="#b48788" stroke-width="1.51"/><path d="M289,990L479,1091L483,984Z" fill="#caa897" stroke="#caa897" stroke-width="1.51"/><path d="M402,55L333,232L490,223Z" fill="#fb9d58" stroke="#fb9d58" stroke-width="1.51"/><path d="M333,232L379,391L490,223Z" fill="#fdaf66" stroke="#fdaf66" stroke-width="1.51"/><path d="M386,887L289,990L483,984Z" fill="#d4ad99" stroke="#d4ad99" stroke-width="1.51"/><path d="M289,990L257,1186L479,1091Z" fill="#c2938d" stroke="#c2938d" stroke-width="1.51"/><path d="M413,555L236,635L459,715Z" fill="#fbc598" stroke="#fbc598" stroke-width="1.51"/><path d="M236,635L298,799L459,715Z" fill="#f5bda1" stroke="#f5bda1" stroke-width="1.51"/><path d="M168,-204L255,-186L402,-251Z" fill="#d84e36" stroke="#d84e36" stroke-width="1.51"/><path d="M255,-186L288,-80L402,-251Z" fill="#e05839" stroke="#e05839" stroke-width="1.51"/><path d="M266,68L333,232L402,55Z" fill="#f98a4f" stroke="#f98a4f" stroke-width="1.51"/><path d="M379,391L259,518L413,555Z" fill="#ffc17f" stroke="#ffc17f" stroke-width="1.51"/><path d="M257,1186L283,1341L433,1296Z" fill="#ad6e7d" stroke="#ad6e7d" stroke-width="1.51"/><path d="M266,68L402,55L406,-27Z" fill="#f67c49" stroke="#f67c49" stroke-width="1.51"/><path d="M259,518L236,635L413,555Z" fill="#ffbf88" stroke="#ffbf88" stroke-width="1.51"/><path d="M288,-80L266,68L406,-27Z" fill="#f17043" stroke="#f17043" stroke-width="1.51"/><path d="M333,232L242,406L379,391Z" fill="#fdad69" stroke="#fdad69" stroke-width="1.51"/><path d="M242,406L259,518L379,391Z" fill="#ffb574" stroke="#ffb574" stroke-width="1.51"/><path d="M298,799L289,990L386,887Z" fill="#ddae99" stroke="#ddae99" stroke-width="1.51"/><path d="M141,823L289,990L298,799Z" fill="#e0a794" stroke="#e0a794" stroke-width="1.51"/><path d="M184,246L242,406L333,232Z" fill="#fb9e5e" stroke="#fb9e5e" stroke-width="1.51"/><path d="M266,68L173,124L333,232Z" fill="#f8834c" stroke="#f8834c" stroke-width="1.51"/><path d="M173,124L184,246L333,232Z" fill="#f98c50" stroke="#f98c50" stroke-width="1.51"/><path d="M120,668L141,823L236,635Z" fill="#f2aa96" stroke="#f2aa96" stroke-width="1.51"/><path d="M164,1248L-57,1290L283,1341Z" fill="#a6536f" stroke="#a6536f" stroke-width="1.51"/><path d="M257,1186L164,1248L283,1341Z" fill="#ad6678" stroke="#ad6678" stroke-width="1.51"/><path d="M164,-64L266,68L288,-80Z" fill="#ee613d" stroke="#ee613d" stroke-width="1.51"/><path d="M141,823L84,949L289,990Z" fill="#d6988d" stroke="#d6988d" stroke-width="1.51"/><path d="M80,1134L257,1186L289,990Z" fill="#be8182" stroke="#be8182" stroke-width="1.51"/><path d="M84,949L80,1134L289,990Z" fill="#c68984" stroke="#c68984" stroke-width="1.51"/><path d="M236,635L141,823L298,799Z" fill="#efad98" stroke="#efad98" stroke-width="1.51"/><path d="M184,246L146,392L242,406Z" fill="#f9a061" stroke="#f9a061" stroke-width="1.51"/><path d="M255,-186L164,-64L288,-80Z" fill="#e65335" stroke="#e65335" stroke-width="1.51"/><path d="M168,-204L164,-64L255,-186Z" fill="#de4932" stroke="#de4932" stroke-width="1.51"/><path d="M135,592L236,635L259,518Z" fill="#fcb384" stroke="#fcb384" stroke-width="1.51"/><path d="M242,406L146,392L259,518Z" fill="#fdac6f" stroke="#fdac6f" stroke-width="1.51"/><path d="M164,-64L173,124L266,68Z" fill="#f26840" stroke="#f26840" stroke-width="1.51"/><path d="M80,1134L164,1248L257,1186Z" fill="#b16d79" stroke="#b16d79" stroke-width="1.51"/><path d="M146,392L135,592L259,518Z" fill="#fdae76" stroke="#fdae76" stroke-width="1.51"/><path d="M135,592L120,668L236,635Z" fill="#f7ad8a" stroke="#f7ad8a" stroke-width="1.51"/><path d="M120,668L37,792L141,823Z" fill="#e8a08f" stroke="#e8a08f" stroke-width="1.51"/><path d="M-67,493L135,592L146,392Z" fill="#f7a36d" stroke="#f7a36d" stroke-width="1.51"/><path d="M-43,-57L-27,139L164,-64Z" fill="#e44e33" stroke="#e44e33" stroke-width="1.51"/><path d="M15,-247L164,-64L168,-204Z" fill="#d63c2d" stroke="#d63c2d" stroke-width="1.51"/><path d="M164,-64L-27,139L173,124Z" fill="#ed623d" stroke="#ed623d" stroke-width="1.51"/><path d="M-40,220L146,392L184,246Z" fill="#f38c53" stroke="#f38c53" stroke-width="1.51"/><path d="M173,124L-27,139L184,246Z" fill="#f17946" stroke="#f17946" stroke-width="1.51"/><path d="M-27,139L-40,220L184,246Z" fill="#ee7844" stroke="#ee7844" stroke-width="1.51"/><path d="M15,-247L-43,-57L164,-64Z" fill="#da3729" stroke="#da3729" stroke-width="1.51"/><path d="M80,1134L-57,1290L164,1248Z" fill="#a95c70" stroke="#a95c70" stroke-width="1.51"/><path d="M37,792L84,949L141,823Z" fill="#db988a" stroke="#db988a" stroke-width="1.51"/><path d="M-40,220L-71,423L146,392Z" fill="#f08d55" stroke="#f08d55" stroke-width="1.51"/><path d="M-71,423L-67,493L146,392Z" fill="#f29661" stroke="#f29661" stroke-width="1.51"/><path d="M-13,956L80,1134L84,949Z" fill="#c3817e" stroke="#c3817e" stroke-width="1.51"/><path d="M-56,649L120,668L135,592Z" fill="#f2a383" stroke="#f2a383" stroke-width="1.51"/><path d="M-67,493L-56,649L135,592Z" fill="#f39f75" stroke="#f39f75" stroke-width="1.51"/><path d="M-56,649L37,792L120,668Z" fill="#ed9d8c" stroke="#ed9d8c" stroke-width="1.51"/><path d="M-13,956L-60,1125L80,1134Z" fill="#b97377" stroke="#b97377" stroke-width="1.51"/><path d="M-60,1125L-57,1290L80,1134Z" fill="#a95e6e" stroke="#a95e6e" stroke-width="1.51"/><path d="M37,792L-13,956L84,949Z" fill="#d38e85" stroke="#d38e85" stroke-width="1.51"/><path d="M-43,-57L-117,79L-27,139Z" fill="#e04f36" stroke="#e04f36" stroke-width="1.51"/><path d="M-56,649L-211,864L37,792Z" fill="#da9087" stroke="#da9087" stroke-width="1.51"/><path d="M-211,864L-112,956L37,792Z" fill="#cb8883" stroke="#cb8883" stroke-width="1.51"/><path d="M-112,956L-13,956L37,792Z" fill="#ce8881" stroke="#ce8881" stroke-width="1.51"/><path d="M-222,694L-211,864L-56,649Z" fill="#d58d87" stroke="#d58d87" stroke-width="1.51"/><path d="M-144,237L-71,423L-40,220Z" fill="#e57e4e" stroke="#e57e4e" stroke-width="1.51"/><path d="M-112,956L-60,1125L-13,956Z" fill="#ba787a" stroke="#ba787a" stroke-width="1.51"/><path d="M-220,-207L-43,-57L15,-247Z" fill="#c72427" stroke="#c72427" stroke-width="1.51"/><path d="M-144,237L-166,402L-71,423Z" fill="#e28555" stroke="#e28555" stroke-width="1.51"/><path d="M-60,1125L-127,1288L-57,1290Z" fill="#9c4f6a" stroke="#9c4f6a" stroke-width="1.51"/><path d="M-220,-207L-202,-60L-43,-57Z" fill="#c72728" stroke="#c72728" stroke-width="1.51"/><path d="M-67,493L-207,522L-56,649Z" fill="#e89870" stroke="#e89870" stroke-width="1.51"/><path d="M-144,237L-40,220L-27,139Z" fill="#e46f42" stroke="#e46f42" stroke-width="1.51"/><path d="M-117,79L-144,237L-27,139Z" fill="#e0633d" stroke="#e0633d" stroke-width="1.51"/><path d="M-112,956L-200,1148L-60,1125Z" fill="#ab6a75" stroke="#ab6a75" stroke-width="1.51"/><path d="M-200,1148L-127,1288L-60,1125Z" fill="#9c566c" stroke="#9c566c" stroke-width="1.51"/><path d="M-202,-60L-117,79L-43,-57Z" fill="#d43e30" stroke="#d43e30" stroke-width="1.51"/><path d="M-207,522L-222,694L-56,649Z" fill="#de927b" stroke="#de927b" stroke-width="1.51"/><path d="M-71,423L-166,402L-67,493Z" fill="#e79061" stroke="#e79061" stroke-width="1.51"/><path d="M-166,402L-207,522L-67,493Z" fill="#e38f65" stroke="#e38f65" stroke-width="1.51"/><path d="M-211,864L-200,1148L-112,956Z" fill="#b1747b" stroke="#b1747b" stroke-width="1.51"/><path d="M-202,-60L-144,237L-117,79Z" fill="#d75138" stroke="#d75138" stroke-width="1.51"/><path d="M-202,-60L-166,402L-144,237Z" fill="#d96741" stroke="#d96741" stroke-width="1.51"/><path d="M-202,-60L-207,522L-166,402Z" fill="#d9764c" stroke="#d9764c" stroke-width="1.51"/><path d="M-220,-207L-222,694L-207,522Z" fill="#d87c53" stroke="#d87c53" stroke-width="1.51"/><path d="M-220,-207L-207,522L-202,-60Z" fill="#d14d37" stroke="#d14d37" stroke-width="1.51"/><path d="M-211,864L-222,694L-200,1148Z" fill="#ba7c7f" stroke="#ba7c7f" stroke-width="1.51"/></svg>
