<svg xmlns="http://www.w3.org/2000/svg" height="40" width="40" viewBox="0 0 40 40">
<path fill="#cd201f" d="M0 18.363v3.15c0 3.237 0.4 6.475 0.4 6.475s0.39 2.75 1.59 3.967c1.52 1.593 3.52 1.543 4.41 1.71 3.2 0.307 13.6 0.4 13.6 0.4s8.405-0.010 14-0.415c0.785-0.095 2.49-0.1 4.010-1.695 1.2-1.215 1.59-3.97 1.59-3.97s0.4-3.235 0.4-6.475v-3.145c0-3.24-0.4-6.475-0.4-6.475s-0.39-2.755-1.59-3.97c-1.52-1.595-3.225-1.6-4.010-1.695-5.595-0.405-14-0.415-14-0.415s-10.4 0.090-13.6 0.4c-0.89 0.168-2.89 0.117-4.41 1.71-1.2 1.218-1.59 3.968-1.59 3.968s-0.4 3.24-0.4 6.475zM15.87 25.188v-11.238l10.807 5.638-10.8 5.6z" />
</svg>
